<svg version="1.1" id="Layer_1" xmlns="http://www.w3.org/2000/svg" xmlns:xlink="http://www.w3.org/1999/xlink" x="0px" y="0px"
	 width="100%" viewBox="0 0 528 352" enable-background="new 0 0 528 352" xml:space="preserve">
<path fill="#000000" opacity="1.000000" stroke="none" 
	d="
M63.748543,117.730385 
	C66.169312,116.206276 68.554604,115.159416 70.337334,113.474861 
	C76.866158,107.305542 82.847870,108.797356 89.807716,113.270775 
	C108.016479,124.974442 126.554276,136.171341 145.082352,147.369308 
	C149.557648,150.074112 151.547516,153.368362 151.493088,158.703156 
	C151.253479,182.192139 151.206940,205.685684 151.419876,229.174576 
	C151.463989,234.042007 149.552429,236.947784 145.695465,239.310104 
	C126.671196,250.962158 107.615379,262.565918 88.734756,274.447418 
	C82.490517,278.376892 76.869514,277.692444 71.014587,274.044830 
	C61.405308,268.058258 51.759029,262.131012 42.121296,256.190186 
	C32.908520,250.511292 23.722719,244.787231 14.449620,239.208420 
	C11.166062,237.232986 9.335121,234.674652 9.304928,230.756042 
	C9.179168,214.434341 8.945490,198.113480 8.816475,181.791794 
	C8.757217,174.295120 9.089705,166.787689 8.792453,159.303085 
	C8.566075,153.603012 10.929149,149.873032 15.649473,147.025177 
	C31.619690,137.390060 47.513515,127.628311 63.748543,117.730385 
M18.298235,204.571838 
	C18.259586,212.061798 18.311184,219.553818 18.140347,227.040756 
	C18.066240,230.288467 19.480513,232.185532 22.178118,233.833191 
	C37.797752,243.373474 53.306469,253.095322 68.919891,262.645905 
	C70.923210,263.871338 72.759079,265.806976 75.869743,265.627808 
	C75.869743,256.644348 75.869698,247.859253 75.869781,239.074173 
	C75.869797,237.176193 74.752068,236.111465 73.227791,235.177353 
	C56.349152,224.833755 39.506123,214.431961 22.608988,204.118774 
	C21.416550,203.390976 19.971354,201.483063 18.298235,204.571838 
M139.257797,232.778503 
	C140.674011,231.851791 142.320053,230.788101 142.379486,229.081741 
	C142.683334,220.359055 143.022034,211.614014 141.454514,203.160889 
	C139.918686,202.598343 139.059280,203.194305 138.229614,203.703262 
	C121.374481,214.043152 104.531464,224.402817 87.676872,234.743607 
	C86.503128,235.463730 85.402496,236.231415 85.311455,237.729462 
	C84.760307,246.797729 84.716156,255.856598 85.375710,266.151459 
	C103.784416,254.754211 121.217735,243.960831 139.257797,232.778503 
M31.389175,199.108994 
	C45.916279,208.066376 60.443386,217.023743 75.904663,226.557129 
	C75.904663,217.540039 75.818779,209.445709 75.948997,201.354889 
	C75.997772,198.324615 74.856148,196.457001 72.237343,194.932755 
	C66.337997,191.499023 60.338028,188.139206 54.878048,184.078323 
	C49.756794,180.269348 45.684040,179.675171 40.415985,184.060150 
	C35.776588,187.921829 30.106522,190.545288 24.842583,193.745346 
	C26.282124,196.597610 28.673075,197.496002 31.389175,199.108994 
M115.451668,180.952881 
	C113.282242,179.731537 111.375427,180.334366 109.407951,181.597763 
	C102.285889,186.171127 95.119621,190.676056 87.943779,195.164825 
	C86.793037,195.884644 85.478012,196.503784 85.405968,197.996643 
	C84.970535,207.019363 84.571442,216.047333 85.661392,225.952850 
	C102.930061,215.148483 119.382774,204.854630 136.589554,194.088974 
	C129.009827,189.358444 122.555748,185.330444 115.451668,180.952881 
M38.414852,153.889954 
	C50.171906,146.618668 62.124157,139.638336 73.595993,131.941910 
	C78.628578,128.565567 82.516197,129.093765 87.186951,132.052185 
	C99.564133,139.891861 112.083328,147.507584 124.558105,155.192780 
	C130.777359,159.024231 132.160751,158.843521 137.940063,153.624466 
	C137.821777,152.635452 136.972473,152.377441 136.282150,151.954208 
	C118.396034,140.988647 100.483238,130.066040 82.662186,118.995728 
	C80.507668,117.657341 79.067200,118.187408 77.249260,119.321877 
	C60.437763,129.812973 43.586151,140.239807 26.780598,150.740372 
	C25.318260,151.654099 23.357874,152.172256 22.894203,154.236588 
	C29.283321,159.193375 29.283321,159.193375 38.414852,153.889954 
M78.292847,149.923859 
	C80.474342,148.822495 82.127861,150.146530 83.816620,151.168045 
	C91.495171,155.812607 99.205833,160.406616 106.814583,165.163330 
	C113.637863,169.428986 114.700150,169.393799 120.949944,163.439407 
	C107.873764,155.392349 94.854813,147.408447 81.873909,139.363159 
	C79.830772,138.096863 78.408226,139.301163 76.880219,140.238831 
	C65.831779,147.018845 54.779449,153.792847 43.773022,160.640549 
	C42.314751,161.547806 40.459396,162.235123 40.071938,164.303223 
	C44.183510,167.947449 48.145367,168.838196 53.102524,165.503189 
	C61.094379,160.126587 69.463852,155.311310 78.292847,149.923859 
M97.928474,178.416046 
	C99.759697,176.904938 102.558281,176.508240 103.663155,173.373062 
	C96.212830,168.866837 88.851822,164.412170 81.487495,159.962997 
	C80.364838,159.284729 79.235840,159.429459 78.190956,160.107986 
	C71.129028,164.693970 64.079292,169.298721 56.965630,173.936493 
	C58.369476,176.363449 60.604511,177.241074 62.515511,178.453934 
	C68.264404,182.102707 74.054527,188.382477 79.884544,188.445343 
	C85.654739,188.507538 91.493042,182.252502 97.928474,178.416046 
M20.609678,163.307251 
	C19.536329,162.910797 18.465160,162.912430 18.451942,164.328690 
	C18.384691,171.534088 18.420921,178.740448 18.420921,187.019608 
	C25.761719,182.533279 32.424423,179.236115 38.901405,174.212875 
	C32.508274,170.371521 26.861233,166.978470 20.609678,163.307251 
M129.238922,169.773605 
	C127.066841,171.336807 123.992073,171.790848 122.627533,175.038300 
	C128.970078,179.163147 135.097565,183.189957 141.629883,186.421631 
	C141.629883,178.385330 141.629883,170.741074 141.629883,162.629471 
	C136.742859,164.337524 133.668976,167.519608 129.238922,169.773605 
z"/>
<path fill="#000000" opacity="1.000000" stroke="none" 
	d="
M212.621490,198.359482 
	C215.269028,203.049698 212.912094,206.417557 210.222763,209.444809 
	C203.051117,217.517685 193.764236,219.336029 183.812576,216.829620 
	C173.697144,214.281982 167.755905,207.067474 165.542892,197.015472 
	C163.315918,186.900070 166.998276,178.666656 174.671646,172.140472 
	C180.416016,167.254913 187.108017,165.360001 194.662903,166.531403 
	C198.460205,167.120193 199.464203,169.324860 199.372818,172.839554 
	C199.278275,176.476196 197.177414,177.272125 194.170715,177.386261 
	C192.350372,177.455383 190.501846,177.560165 188.728043,177.939285 
	C182.045746,179.367569 177.879074,183.548553 177.148392,189.372360 
	C176.223862,196.741241 178.456207,201.712189 183.985718,204.597733 
	C189.844620,207.655167 195.930389,206.875290 201.042023,202.350525 
	C202.160141,201.360794 203.023666,200.055969 204.213608,199.180573 
	C206.678696,197.367050 209.284546,195.746613 212.621490,198.359482 
z"/>
<path fill="#000000" opacity="1.000000" stroke="none" 
	d="
M465.074127,200.622559 
	C457.115417,216.903305 441.801788,222.336105 427.197266,214.399445 
	C418.476746,209.660385 412.888580,197.724335 414.741699,188.014069 
	C415.437805,184.366760 418.047363,183.797089 421.051697,183.721893 
	C424.372589,183.638779 425.251678,185.694550 425.344818,188.569016 
	C425.591095,196.167648 427.565002,202.767517 435.633972,205.685394 
	C441.719604,207.886063 448.979218,205.628052 452.449829,200.446075 
	C456.170471,194.890793 455.593536,186.789795 451.059998,181.902435 
	C450.047089,180.810471 448.867706,179.859863 447.696381,178.930603 
	C444.953400,176.754501 443.873535,174.051117 446.147522,171.151764 
	C448.224670,168.503372 451.141724,168.988922 453.845154,170.403442 
	C463.741974,175.581848 468.367432,187.774567 465.074127,200.622559 
z"/>
<path fill="#000000" opacity="1.000000" stroke="none" 
	d="
M353.747009,205.711121 
	C355.259644,201.297562 358.156311,201.753555 361.111938,203.186127 
	C363.974304,204.573502 366.862274,205.831726 369.977844,206.462418 
	C371.793915,206.830063 373.610748,206.678925 375.372772,205.964325 
	C377.002991,205.303192 378.485992,204.433289 378.468048,202.493103 
	C378.451782,200.732391 376.970154,199.927429 375.525543,199.497055 
	C372.339539,198.547943 369.062317,197.898621 365.891479,196.906097 
	C355.798798,193.746933 351.126953,186.505066 353.530945,177.933044 
	C355.464752,171.037521 364.407074,165.243942 371.377686,166.262955 
	C374.519806,166.722290 377.014282,168.009583 376.969208,171.452652 
	C376.928314,174.577316 374.889954,176.623840 371.863708,177.464905 
	C370.922974,177.726334 369.886322,177.625885 368.899597,177.741898 
	C366.421173,178.033279 364.890533,179.520935 364.587433,181.892487 
	C364.292816,184.197800 366.236053,184.993332 367.969604,185.597305 
	C372.048004,187.018250 376.231812,188.152222 380.261749,189.693192 
	C386.718994,192.162308 390.406738,196.602142 389.947144,202.143524 
	C389.438599,208.275024 386.576019,213.530701 380.686890,215.970612 
	C372.061646,219.544098 363.766205,218.394409 356.285400,212.601334 
	C354.161774,210.956802 352.980652,208.876434 353.747009,205.711121 
z"/>
<path fill="#000000" opacity="1.000000" stroke="none" 
	d="
M306.630188,186.998138 
	C306.645172,181.504227 306.737549,176.508194 306.644135,171.515610 
	C306.578552,168.008286 308.382874,166.751831 311.595520,166.848938 
	C314.682800,166.942230 317.291473,167.571899 317.313782,171.485703 
	C317.359344,179.475449 317.249847,187.473282 317.589813,195.451370 
	C317.787445,200.089539 318.144043,204.916809 324.358887,206.124100 
	C330.128876,207.244949 334.372192,204.564957 334.877533,198.774384 
	C335.282135,194.138535 335.458893,189.477798 335.579102,184.824051 
	C335.647247,182.185822 336.691223,180.614426 339.414307,180.761383 
	C342.035828,180.902847 345.541138,179.626633 346.276581,183.774719 
	C347.723053,191.932953 347.714050,200.049255 343.994415,207.690887 
	C340.083252,215.726059 331.051575,219.348694 320.955231,217.198898 
	C313.070953,215.520096 306.959961,207.998825 306.688507,199.483780 
	C306.561218,195.491776 306.641815,191.493118 306.630188,186.998138 
z"/>
<path fill="#000000" opacity="1.000000" stroke="none" 
	d="
M291.749725,206.705841 
	C293.364807,206.857162 294.574249,206.823593 295.657623,207.176788 
	C298.497162,208.102448 299.392181,210.382339 299.073608,213.095535 
	C298.762421,215.745880 297.133789,217.368118 294.381226,217.314972 
	C289.064301,217.212326 283.785675,217.917191 278.429565,217.503952 
	C272.305573,217.031464 268.697418,213.775620 266.301514,208.589569 
	C264.740753,205.211227 264.063904,201.595917 264.024902,197.913681 
	C263.936859,189.589722 264.028625,181.264038 263.984894,172.939392 
	C263.964691,169.090012 264.917297,166.556015 269.614838,166.713120 
	C273.937866,166.857712 275.410522,168.730774 275.379333,172.892731 
	C275.312012,181.877853 275.252167,190.867737 276.033600,199.844238 
	C276.556854,205.855194 277.120728,206.560745 283.293274,206.659912 
	C285.957245,206.702713 288.622162,206.686584 291.749725,206.705841 
z"/>
<path fill="#000000" opacity="1.000000" stroke="none" 
	d="
M396.967621,169.539001 
	C398.977386,165.932343 401.858185,166.653656 404.627014,167.261871 
	C407.412933,167.873886 407.421234,170.306290 407.556885,172.421524 
	C408.397644,185.531921 408.191956,198.647476 407.694824,211.767014 
	C407.535248,215.977829 405.641510,217.595642 401.416748,217.356461 
	C397.272491,217.121841 396.604675,214.761383 396.633423,211.360062 
	C396.749969,197.565155 396.778076,183.769485 396.967621,169.539001 
z"/>
<path fill="#000000" opacity="1.000000" stroke="none" 
	d="
M257.315002,173.902191 
	C257.038574,177.167892 254.956161,177.217087 252.906921,177.223236 
	C243.929382,177.250198 234.951004,177.185257 225.974518,177.290070 
	C222.176514,177.334412 221.103348,175.291183 221.087524,171.957703 
	C221.071747,168.630936 222.147263,166.802032 225.903778,166.497665 
	C234.046478,165.837936 242.184952,165.994232 250.321960,166.107162 
	C256.743958,166.196274 257.184998,166.839386 257.315002,173.902191 
z"/>
<path fill="#000000" opacity="1.000000" stroke="none" 
	d="
M228.334839,206.958115 
	C236.776535,206.908905 244.758621,207.035721 252.728897,206.785751 
	C257.207306,206.645279 257.287720,209.194412 257.370270,212.515503 
	C257.466370,216.380814 255.942078,217.963531 252.105408,217.861816 
	C243.648819,217.637619 235.188095,217.525192 226.728470,217.482407 
	C223.663879,217.466888 220.957520,217.370804 220.963593,213.239349 
	C220.969025,209.540741 222.268356,207.109177 226.377548,207.068802 
	C226.875381,207.063919 227.372711,207.008530 228.334839,206.958115 
z"/>
<path fill="#000000" opacity="1.000000" stroke="none" 
	d="
M251.816376,186.767487 
	C257.330719,186.267838 257.319305,189.579453 257.412476,193.186005 
	C257.513672,197.104324 255.209549,197.380295 252.247726,197.399551 
	C244.088303,197.452591 235.926712,197.535492 227.771851,197.793045 
	C222.597824,197.956436 221.387817,195.329010 221.481567,190.666199 
	C221.585266,185.508835 225.150055,186.847443 227.841751,186.802780 
	C235.671829,186.672852 243.505554,186.764252 251.816376,186.767487 
z"/>
<path fill="#000000" opacity="1.000000" stroke="none" 
	d="
M339.519135,177.052582 
	C334.322357,175.847458 335.035278,171.930222 335.864166,168.957901 
	C336.812134,165.558441 340.299011,166.776978 342.767944,167.043549 
	C346.004730,167.393051 346.445374,169.972198 346.257874,172.664719 
	C345.975403,176.720734 343.264526,177.401794 339.519135,177.052582 
z"/>
<path fill="#000000" opacity="1.000000" stroke="none" 
	d="
M379.811401,180.370377 
	C377.573151,174.877533 379.140991,171.663254 383.640961,171.748459 
	C386.882660,171.809860 389.234589,173.117233 389.115570,176.725296 
	C389.000549,180.212982 386.903839,181.758667 383.476410,181.375641 
	C382.347260,181.249466 381.250061,180.837494 379.811401,180.370377 
z"/>
</svg>